<!-- icon666.com - MILLIONS vector ICONS FREE --><svg viewBox="0 -50 512.00042 512" xmlns="http://www.w3.org/2000/svg"><path d="m466.605469 328.773438-28.835938-140.066407c-3.429687-13.09375-11.144531-24.65625-21.917969-32.851562l-12.050781-9.171875c-8.351562-6.355469-14.910156-14.769532-19.03125-24.421875l-20.375-47.742188c-3.203125-7.5-7.882812-14.273437-13.761719-19.917969l-8.390624-8.054687c-3.460938-3.320313-6.511719-7.042969-9.09375-11.082031-19.820313-31.027344-62.507813-37.335938-90.460938-13.378906l-14.457031 12.390624c-5.453125 4.675782-11.699219 8.34375-18.4375 10.832032l-23.851563 8.808594c-15.628906 5.769531-28.1875 17.722656-34.726562 33.042968l-13.800782 32.328125c-4.863281 11.390625-13.101562 21.019531-23.605468 27.585938l-13.890625 8.679687c-13.097657 8.1875-22.574219 21.070313-26.492188 36.011719l-28.035156 137.007813c-10.058594 38.386718 18.90625 75.917968 58.589844 75.917968h304.035156c39.6875 0 68.648437-37.53125 58.589844-75.917968zm0 0" fill="#77889a"></path><path d="m75.390625 338.773438 28.039063-137.007813c3.914062-14.941406 13.390624-27.824219 26.488281-36.011719l13.890625-8.679687c10.503906-6.566407 18.742187-16.195313 23.605468-27.585938l13.800782-32.328125c6.539062-15.320312 19.097656-27.273437 34.726562-33.042968l23.851563-8.804688c6.742187-2.488281 12.984375-6.15625 18.4375-10.835938l14.457031-12.390624c12.492188-10.707032 27.925781-15.351563 42.945312-14.464844-21.777343-14.453125-51.636718-13.796875-72.945312 4.464844l-14.457031 12.390624c-5.453125 4.675782-11.699219 8.347657-18.4375 10.832032l-23.851563 8.808594c-15.628906 5.769531-28.1875 17.722656-34.726562 33.042968l-13.800782 32.328125c-4.863281 11.390625-13.101562 21.019531-23.605468 27.585938l-13.890625 8.679687c-13.097657 8.1875-22.574219 21.070313-26.492188 36.011719l-28.035156 137.007813c-9.757813 37.238281 17.207031 73.667968 55.058594 75.816406-20.566407-13.722656-31.933594-39.566406-25.058594-65.816406zm0 0" fill="#5f7080"></path><path d="m384.578125 284.042969c-3.648437-13.15625-13.527344-53.683594-26.429687-58.15625l-9.984376-3.460938c-9.316406-3.230469-17.179687-9.667969-22.1875-18.160156-7.46875-12.675781-21.082031-20.457031-35.792968-20.457031h-68.367188c-14.710937 0-28.328125 7.78125-35.796875 20.457031-5.003906 8.492187-12.871093 14.933594-22.1875 18.160156l-9.984375 3.460938c-12.898437 4.472656-22.78125 45-26.429687 58.15625l-13.980469 50.417969 79.535156 70.230468h107.144532l98.445312-70.230468zm0 0" fill="#3d4851"></path><path d="m157.421875 284.042969c3.648437-13.15625 13.527344-53.683594 26.425781-58.15625l9.988282-3.460938c9.316406-3.230469 17.179687-9.667969 22.183593-18.164062 7.46875-12.671875 21.085938-20.453125 35.796875-20.453125h-30c-14.710937 0-28.328125 7.78125-35.796875 20.453125-5.003906 8.496093-12.871093 14.933593-22.1875 18.164062l-9.984375 3.460938c-12.898437 4.472656-22.78125 45-26.429687 58.15625l-13.980469 50.417969 27.480469 24.261718zm0 0" fill="#333a41"></path><path d="m487.25 353.609375c-3.371094-9.96875-10.492188-18.234375-19.851562-23.042969l-38.996094-20.023437c-8.421875-4.328125-18.09375-5.5625-27.332032-3.492188l-28.847656 6.464844c-5.972656 1.339844-11.566406 4.019531-16.355468 7.832031l-31.203126 24.847656c-6.59375 5.25-11.386718 12.429688-13.703124 20.535157l-10.84375 37.960937h204.386718zm0 0" fill="#a5b0bc"></path><path d="m354.664062 346.195312 31.203126-24.847656c4.789062-3.8125 10.382812-6.492187 16.355468-7.828125l21.820313-4.890625c-7.3125-2.726562-15.292969-3.296875-22.972657-1.578125l-28.847656 6.464844c-5.972656 1.339844-11.566406 4.019531-16.355468 7.832031l-31.203126 24.847656c-6.59375 5.25-11.386718 12.429688-13.703124 20.535157l-10.84375 37.960937h30l10.847656-37.960937c2.316406-8.105469 7.105468-15.285157 13.699218-20.535157zm0 0" fill="#77889a"></path><path d="m174.78125 369.113281c-4.605469-9.011719-11.402344-16.71875-19.769531-22.414062l-10.300781-7.011719c-8.503907-5.789062-18.34375-9.308594-28.585938-10.226562l-22.109375-1.980469c-14.566406-1.304688-29.113281 2.726562-40.929687 11.339843l-17.523438 12.769532c-11.171875 8.140625-19.207031 19.871094-22.769531 33.226562l-5.300781 19.875h185.480468zm0 0" fill="#a5b0bc"></path><path d="m65.5625 351.589844 17.523438-12.769532c6.925781-5.046874 14.789062-8.507812 23.039062-10.253906l-12.109375-1.085937c-14.566406-1.304688-29.113281 2.726562-40.929687 11.339843l-17.523438 12.769532c-11.171875 8.140625-19.207031 19.871094-22.769531 33.226562l-5.300781 19.875h30l5.300781-19.875c3.5625-13.355468 11.601562-25.085937 22.769531-33.226562zm0 0" fill="#77889a"></path><path d="m190.257812 118.921875v10.542969c0 4.140625 3.359376 7.5 7.5 7.5 4.140626 0 7.5-3.359375 7.5-7.5v-10.542969c0-4.140625-3.359374-7.5-7.5-7.5-4.140624 0-7.5 3.359375-7.5 7.5zm0 0"></path><path d="m314.246094 111.421875c-4.144532 0-7.5 3.359375-7.5 7.5v10.542969c0 4.140625 3.355468 7.5 7.5 7.5 4.140625 0 7.5-3.359375 7.5-7.5v-10.542969c0-4.140625-3.359375-7.5-7.5-7.5zm0 0"></path><path d="m264.730469 123.796875c-2.109375 2.410156-5.292969 3.792969-8.730469 3.792969s-6.621094-1.382813-8.726562-3.792969c-2.730469-3.121094-7.464844-3.4375-10.585938-.710937-3.117188 2.726562-3.4375 7.460937-.710938 10.582031 4.960938 5.671875 12.257813 8.925781 20.023438 8.925781s15.0625-3.253906 20.019531-8.925781c2.730469-3.121094 2.410157-7.859375-.707031-10.582031-3.117188-2.726563-7.855469-2.410157-10.582031.710937zm0 0"></path><path d="m337.089844 51.917969c7.925781 8.03125 15.867187 14.910156 20.40625 25.542969l20.378906 47.742187c4.621094 10.828125 12.015625 20.320313 21.386719 27.449219 13.746093 10.457031 26.539062 20.222656 31.203125 37.765625l4.964844 24.105469c.832031 4.058593 4.804687 6.667968 8.855468 5.832031 4.058594-.832031 6.671875-4.800781 5.835938-8.855469l-5.003906-24.308594c-.027344-.128906-.058594-.261718-.09375-.386718-5.503907-20.769532-20.28125-33.613282-36.679688-46.089844-7.304688-5.558594-13.070312-12.960938-16.675781-21.402344 0 0-20.371094-47.726562-20.375-47.742188-5.296875-12.402343-14.328125-21.289062-23.855469-30.433593-3.027344-2.910157-5.710938-6.175781-7.96875-9.714844-10.617188-16.617187-27.894531-27.800781-47.402344-30.6875-19.507812-2.886719-39.285156 2.820313-54.257812 15.65625 0 0-14.453125 12.386719-14.457032 12.390625-11.078124 9.496094-26.546874 13.328125-40.007812 18.296875-17.484375 6.457031-31.710938 19.992187-39.027344 37.136719l-13.796875 32.328125c-4.28125 10.03125-11.433593 18.386719-20.683593 24.167969l-13.890626 8.683593c-14.78125 9.238281-25.355468 23.609375-29.769531 40.46875-.035156.128907-.066406.265625-.09375.398438l-27.996093 136.8125c-1.273438 4.917969-1.988282 9.9375-2.152344 14.960937l-4.789063 3.492188c-12.515625 9.121094-21.605469 22.386718-25.597656 37.351562 0 0-5.285156 19.828125-5.296875 19.875-1.253906 4.699219 2.398438 9.433594 7.246094 9.433594h497.011718c5.054688 0 8.726563-5.109375 7.105469-9.898438l-17.257812-51.082031c-3.675781-10.882812-11-19.921875-20.773438-25.773437l-17.535156-85.152344c-.832031-4.058594-4.800781-6.667969-8.855469-5.835938-4.058594.835938-6.667968 4.804688-5.835937 8.859376l15.070312 73.191406s-24.59375-12.628906-24.605469-12.636719c-9.960937-5.109375-21.464843-6.578125-32.386718-4.128906l-2.558594.574219s-5.707031-20.621094-6.089844-22.039063c-8.761718-32.453125-17.246094-54.988281-30.175781-59.46875-11.273437-3.90625-21.75-7.457031-28.164063-18.34375-8.777343-14.894531-24.96875-24.148437-42.257812-24.148437h-68.367188c-17.289062 0-33.480468 9.253906-42.257812 24.148437-6.417969 10.890625-17 14.472656-28.167969 18.34375-10.027343 3.476563-17.957031 17.355469-26.523437 46.40625-1.167969 3.976563 1.101562 8.144531 5.074218 9.316406 3.972657 1.171875 8.144532-1.101562 9.316407-5.074219 9.753906-33.089843 16.328125-36.226562 17.046875-36.476562 14.765625-5.117188 27.867187-10.800781 36.179687-24.902344 6.089844-10.339844 17.332031-16.761718 29.332031-16.761718h68.367188c12 0 23.238281 6.421874 29.332031 16.761718 8.292969 14.074219 21.523438 19.824219 36.175781 24.902344.179688.0625 4.472657 1.71875 11 18.410156 4.183594 10.714844 10.351563 33.554688 10.660157 34.664063l4.863281 17.542969-11.632812 2.609374c-7.042969 1.578126-13.746094 4.785157-19.386719 9.28125l-31.203125 24.847657c-7.863282 6.261719-13.480469 14.679687-16.242188 24.34375l-9.289062 32.519531h-96.902344l-10.570312-20.675781-5.53125-10.816407c-7.414063-14.511718-19.375-23.261718-32.511719-32.199218-7.402344-5.039063-15.8125-8.570313-24.578125-10.394532l6.964844-25.109374c1.105468-3.988282-1.230469-8.121094-5.222657-9.230469-3.992187-1.105469-8.125 1.230469-9.234375 5.226562 0 0-7.578125 27.328125-7.578125 27.328125-7.664062-.6875-15.371093-1.746094-23.082031-1.53125-11.777344.414063-23.320312 3.921875-33.335938 10.136719-.027343.015625-.054687.03125-.078124.046875l27.929687-136.496094c3.476563-13.0625 11.691406-24.191406 23.160156-31.359375l13.890625-8.683593c11.863282-7.414063 21.039063-18.132813 26.527344-31l13.800781-32.328126c5.703125-13.367187 16.792969-23.917968 30.425781-28.953124 15.460938-5.707032 31.804688-10.035157 44.574219-20.980469l14.457031-12.390625c11.671876-10.003906 27.09375-14.453125 42.300782-12.203125 15.210937 2.246093 28.679687 10.96875 36.957031 23.925781 2.90625 4.546875 6.476563 8.582031 10.261719 12.417969zm-319.832032 345.269531 2.785157-10.441406c3.109375-11.65625 10.1875-21.988282 19.9375-29.09375l17.523437-12.773438c10.277344-7.488281 23.175782-11.0625 35.84375-9.929687l22.109375 1.980469c8.90625.800781 17.640625 3.921874 25.03125 8.957031 10.996094 7.484375 21.378907 14.445312 27.617188 26.640625l12.609375 24.664062h-163.457032zm312.078126-45.128906s31.203124-24.84375 31.207031-24.847656c3.898437-3.101563 8.480469-5.238282 13.320312-6.375l28.847657-6.464844c7.453124-1.671875 15.476562-.648438 22.269531 2.839844l38.992187 20.023437c7.671875 3.9375 13.414063 10.605469 16.171875 18.773437l13.914063 41.179688h-183.996094s8.113281-28.394531 8.113281-28.398438c1.878907-6.566406 5.820313-12.472656 11.160157-16.730468zm0 0"></path></svg>