<!-- icon666.com - MILLIONS vector ICONS FREE --><svg version="1.1" id="Layer_1" xmlns="http://www.w3.org/2000/svg" xmlns:xlink="http://www.w3.org/1999/xlink" x="0px" y="0px" viewBox="0 0 512 512" style="enable-background:new 0 0 512 512;" xml:space="preserve"><polygon style="fill:#BAB0A8;" points="293.646,300.159 247.724,300.159 209.594,300.159 236.655,476.618 253.691,476.618 258.307,476.618 275.342,476.618 288.934,387.997 293.025,361.997 302.402,300.159 "></polygon><polygon style="fill:#B29D94;" points="255.997,300.159 247.724,300.159 209.594,300.159 236.655,476.618 253.691,476.618 258.307,476.618 275.342,476.618 279.201,451.461 "></polygon><path style="fill:#D6CCC5;" d="M247.724,241.121H184.46v47.938c0,7.362,5.968,13.331,13.332,13.331h49.932h45.922h20.563 c7.364,0,13.333-5.97,13.333-13.331v-47.938h-33.897H247.724z"></path><path style="fill:#BAB1AA;" d="M230.864,289.058V241.12H184.46v47.938c0,7.362,5.968,13.331,13.332,13.331h46.402 C236.831,302.39,230.864,296.42,230.864,289.058z"></path><path style="fill:#FE9900;" d="M276.776,8.293l-0.01,0.008c0,0,4.701-13.363-4.546-6.18c-0.721,0.605-1.465,1.234-2.24,1.897 c-0.407,0.37-0.794,0.699-1.166,1.004C234.507,34.743,150.143,110.748,234.58,190.53h36.913c0,0,36.372-18.542,36.372-64.899 C307.865,70.289,261.514,55.955,276.776,8.293z"></path><path style="fill:#EF7A06;" d="M276.384,43.066c-3.278-10.004-4.021-20.994,0.39-34.772l-0.01,0.008c0,0,4.701-13.363-4.546-6.18 c-0.721,0.605-1.465,1.234-2.24,1.897c-0.407,0.37-0.794,0.699-1.166,1.004c-34.307,29.721-118.671,105.725-34.235,185.507h36.913 c0,0,2.197-1.124,5.503-3.494C222.443,132.407,245.761,79.851,276.384,43.066z"></path><path style="fill:#F65C1D;" d="M268.063,126.636c-4.872-15.818-12.576-25.075-12.903-25.461c-0.542-0.643-1.34-1.012-2.187-0.991 c-0.841,0.017-1.63,0.412-2.146,1.078c-0.361,0.464-8.891,11.567-13.596,28.317c-4.373,15.564-6.078,39.054,10.629,62.567 c0.523,0.736,1.371,1.173,2.273,1.173h10.553c1.103,0,2.104-0.65,2.55-1.66C275.35,164.293,272.548,141.195,268.063,126.636z"></path><path style="fill:#485360;" d="M304.605,202.747c0-7.363-5.97-13.332-13.331-13.332h-70.549c-7.362,0-13.331,5.97-13.331,13.332 v15.438h0.001v21.85h45.634h35.734h15.841v-21.85h0.001V202.747z"></path><g><path style="fill:#364351;" d="M235.733,474.387c-2.527,3.831-4.001,8.415-4.001,13.347c0,13.401,10.865,24.266,24.266,24.266 c13.403,0,24.268-10.865,24.268-24.266c0-4.931-1.475-9.516-4.001-13.347H235.733z"></path><path style="fill:#364351;" d="M253.796,218.186v-15.438c0-7.363,5.97-13.332,13.331-13.332h-46.402 c-7.362,0-13.331,5.97-13.331,13.332v15.438h0.001v21.85h45.634h0.767L253.796,218.186L253.796,218.186z"></path></g><path style="fill:#BAB0A8;" d="M341.796,232.441c0-7.873-6.383-14.255-14.253-14.255h-18.658h-53.327h-32.22H184.46 c-7.875,0-14.257,6.383-14.257,14.255c0,7.875,6.383,14.257,14.257,14.257h38.876h32.22h53.327h18.658 C335.413,246.698,341.796,240.315,341.796,232.441z"></path><path style="fill:#B29D94;" d="M216.606,232.441c0-7.873,6.382-14.255,14.257-14.255h-7.526H184.46 c-7.875,0-14.257,6.383-14.257,14.255c0,7.875,6.383,14.257,14.257,14.257h38.876h7.526 C222.988,246.698,216.606,240.315,216.606,232.441z"></path></svg>