<!-- icon666.com - MILLIONS vector ICONS FREE --><svg version="1.1" id="Capa_1" xmlns="http://www.w3.org/2000/svg" xmlns:xlink="http://www.w3.org/1999/xlink" x="0px" y="0px" viewBox="0 0 512 512" style="enable-background:new 0 0 512 512;" xml:space="preserve"><polyline style="fill:#FFDD9E;" points="232.938,481.005 466.866,481.3 466.866,405.868 231.06,405.868 "></polyline><path style="fill:#DFB176;" d="M258.054,454.507L258.054,454.507c-8.952,0-16.21-7.257-16.21-16.21v-31.068 c0-8.952,7.257-16.21,16.21-16.21l0,0c8.952,0,16.21,7.257,16.21,16.21v31.068C274.264,447.25,267.007,454.507,258.054,454.507z"></path><path style="fill:#FFDD9E;" d="M258.054,391.02L258.054,391.02c-8.952,0-16.21,7.257-16.21,16.21v22.362 c0-8.952,7.257-16.21,16.21-16.21l0,0c8.952,0,16.21,7.257,16.21,16.21v-22.362C274.264,398.277,267.007,391.02,258.054,391.02z"></path><path id="SVGCleanerId_0" style="fill:#DFB176;" d="M240.494,388.994L240.494,388.994c0,8.952-7.257,16.21-16.21,16.21h-54.032 c-8.952,0-16.21-7.257-16.21-16.21l0,0c0-8.952,7.257-16.21,16.21-16.21h54.032C233.237,372.784,240.494,380.042,240.494,388.994z"></path><g><path id="SVGCleanerId_0_1_" style="fill:#DFB176;" d="M240.494,388.994L240.494,388.994c0,8.952-7.257,16.21-16.21,16.21h-54.032 c-8.952,0-16.21-7.257-16.21-16.21l0,0c0-8.952,7.257-16.21,16.21-16.21h54.032C233.237,372.784,240.494,380.042,240.494,388.994z"></path></g><path style="fill:#FFDD9E;" d="M224.284,372.784h-54.032c-8.952,0-16.21,7.257-16.21,16.21l0,0c0,3.241,0.962,6.252,2.6,8.785 c2.887-4.463,7.898-7.424,13.61-7.424h54.032c5.711,0,10.723,2.96,13.61,7.424c1.638-2.533,2.6-5.544,2.6-8.785l0,0 C240.494,380.042,233.237,372.784,224.284,372.784z"></path><path style="fill:#DFB176;" d="M240.494,421.592L240.494,421.592c0,8.952-7.257,16.21-16.21,16.21h-54.032 c-8.952,0-16.21-7.257-16.21-16.21l0,0c0-8.952,7.257-16.21,16.21-16.21h54.032C233.237,405.382,240.494,412.639,240.494,421.592z"></path><path style="fill:#FFDD9E;" d="M224.284,405.382h-54.032c-8.952,0-16.21,7.257-16.21,16.21l0,0c0,3.241,0.962,6.252,2.6,8.785 c2.887-4.463,7.898-7.424,13.61-7.424h54.032c5.711,0,10.723,2.96,13.61,7.424c1.638-2.533,2.6-5.544,2.6-8.785l0,0 C240.494,412.639,233.237,405.382,224.284,405.382z"></path><path style="fill:#DFB176;" d="M240.494,454.19L240.494,454.19c0,8.952-7.257,16.21-16.21,16.21h-54.032 c-8.952,0-16.21-7.257-16.21-16.21l0,0c0-8.952,7.257-16.21,16.21-16.21h54.032C233.237,437.981,240.494,445.238,240.494,454.19z"></path><path style="fill:#FFDD9E;" d="M224.284,437.981h-54.032c-8.952,0-16.21,7.257-16.21,16.21l0,0c0,3.241,0.962,6.252,2.6,8.785 c2.887-4.463,7.898-7.424,13.61-7.424h54.032c5.711,0,10.723,2.96,13.61,7.424c1.638-2.533,2.6-5.544,2.6-8.785l0,0 C240.494,445.238,233.237,437.981,224.284,437.981z"></path><path style="fill:#DFB176;" d="M240.494,486.788L240.494,486.788c0,8.952-7.257,16.21-16.21,16.21h-54.032 c-8.952,0-16.21-7.257-16.21-16.21l0,0c0-8.952,7.257-16.21,16.21-16.21h54.032C233.237,470.579,240.494,477.836,240.494,486.788z"></path><path style="fill:#FFDD9E;" d="M224.284,470.579h-54.032c-8.952,0-16.21,7.257-16.21,16.21l0,0c0,3.241,0.962,6.252,2.6,8.785 c2.887-4.463,7.898-7.424,13.61-7.424h54.032c5.711,0,10.723,2.96,13.61,7.424c1.638-2.533,2.6-5.544,2.6-8.785l0,0 C240.494,477.836,233.237,470.579,224.284,470.579z"></path><polyline style="fill:#DFB176;" points="413.695,481.005 466.866,481.3 466.866,405.868 413.268,405.868 "></polyline><path style="fill:#FFEC76;" d="M122.11,187.969l-1.928-73.05c-0.223-8.449-1.188-16.852-2.539-25.196 C111.9,54.207,128.577,18.302,160.334,0l0,0l-0.127,0.886c-7.325,50.846,12.413,101.83,52.068,134.487l0,0L122.11,187.969z"></path><path style="fill:#F48D24;" d="M272.671,198.183c-7.459,36.573-40.221,63.94-79.204,63.022c-41.852-0.985-75.984-35.118-76.97-76.97 c-0.551-23.391,9.082-44.541,24.775-59.33c34.039-32.077,54.097-76.237,54.097-123.008V0l0,0 c69.398,0,118.146,68.344,95.552,133.961l-5.292,15.368C280.137,165.279,276.042,181.653,272.671,198.183z"></path><circle style="fill:#DD2323;" cx="195.373" cy="172.936" r="60.11"></circle><g><rect x="180.346" y="54.6" style="fill:#F9AC11;" width="15.028" height="33.812"></rect><rect x="165.318" y="86.528" style="fill:#F9AC11;" width="45.083" height="33.812"></rect></g><polyline style="fill:#B3640D;" points="227.303,216.146 217.911,370.177 174.707,370.177 165.314,216.146 "></polyline><rect x="165.318" y="214.262" style="fill:#D37E0E;" width="61.988" height="22.541"></rect><rect x="150.291" y="114.71" style="fill:#F9AC11;" width="90.165" height="103.309"></rect><rect x="150.291" y="174.82" width="90.165" height="15.028"></rect><rect x="150.291" y="144.765" width="90.165" height="15.028"></rect><rect x="150.291" y="114.71" width="90.165" height="15.028"></rect><path style="fill:#EB4F27;" d="M120.232,84.655h-15.028c0-16.572-13.483-30.055-30.055-30.055V39.572 C100.008,39.572,120.232,59.796,120.232,84.655z"></path><path style="fill:#FE3934;" d="M308.076,152.279h-15.027v-60.11c0-12.43,10.113-22.541,22.541-22.541s22.541,10.112,22.541,22.541 v22.541h-15.027V92.169c0-4.144-3.37-7.514-7.514-7.514c-4.144,0-7.514,3.37-7.514,7.514V152.279z"></path><path style="fill:#EB4F27;" d="M165.314,48.965h-15.027c0-9.322-7.584-16.906-16.906-16.906h-13.149V17.031h13.149 C150.989,17.031,165.314,31.356,165.314,48.965z"></path><rect x="263.018" y="473.622" transform="matrix(-1 -0.0014 0.0014 -1 729.2349 962.7814)" width="203.873" height="15.028"></rect><rect x="165.318" y="84.655" width="45.083" height="15.028"></rect><rect x="180.346" y="54.6" width="15.028" height="15.028"></rect><g><rect x="45.098" y="107.196" style="fill:#FE7829;" width="15.028" height="15.028"></rect><rect x="308.08" y="167.306" style="fill:#FE7829;" width="15.028" height="15.028"></rect></g><g><rect x="300.566" y="32.059" style="fill:#FFEC76;" width="15.028" height="15.028"></rect><rect x="80.784" y="174.82" style="fill:#FFEC76;" width="15.028" height="15.028"></rect></g><g><rect x="195.373" y="234.93" style="fill:#FFFFFF;" width="15.028" height="15.028"></rect><rect x="187.86" y="310.067" style="fill:#FFFFFF;" width="15.028" height="15.028"></rect></g><path d="M258.054,383.506c-3.674,0-7.154,0.84-10.261,2.336c-1.484-11.124-10.705-19.834-22.058-20.524l8.867-145.417h5.85v-15.027 h-90.165v15.027h7.728l8.878,145.61c-11.495,1.637-20.364,11.54-20.364,23.481c0,6.432,2.577,12.269,6.746,16.547 c-4.17,4.278-6.746,10.115-6.746,16.547s2.577,12.269,6.746,16.547c-4.17,4.278-6.746,10.116-6.746,16.547 c0,6.432,2.577,12.269,6.746,16.547c-4.17,4.278-6.746,10.115-6.746,16.547c0,13.081,10.642,23.723,23.723,23.723h54.032 c13.081,0,23.723-10.642,23.723-23.723c0-6.432-2.577-12.269-6.746-16.547c3.195-3.277,5.45-7.472,6.332-12.147 c3.158,1.559,6.709,2.438,10.462,2.438c13.081,0,23.723-10.642,23.723-23.723v-31.068 C281.778,394.148,271.135,383.506,258.054,383.506z M224.284,463.878h-54.032c-4.795,0-8.696-3.901-8.696-8.696 c0-4.795,3.901-8.696,8.696-8.696h54.032c4.795,0,8.696,3.901,8.696,8.696C232.98,459.977,229.079,463.878,224.284,463.878z M170.253,413.393h54.032c4.795,0,8.696,3.901,8.696,8.696c0,4.795-3.901,8.696-8.696,8.696h-54.032 c-4.795,0-8.696-3.901-8.696-8.696C161.558,417.294,165.458,413.393,170.253,413.393z M219.546,219.902l-3.666,60.11h-20.512v15.027 h19.595l-2.749,45.083h-9.332v15.027h8.415l-0.617,10.121h-28.747l-3.366-55.203h9.286V295.04h-10.203l-3.207-52.596h5.896v-15.028 h-6.812l-0.458-7.514H219.546z M170.253,380.298h54.032c4.795,0,8.696,3.901,8.696,8.696c0,4.795-3.901,8.696-8.696,8.696h-54.032 c-4.795,0-8.696-3.901-8.696-8.696C161.558,384.199,165.458,380.298,170.253,380.298z M224.284,496.973h-54.032 c-4.795,0-8.696-3.901-8.696-8.696c0-4.795,3.901-8.696,8.696-8.696h54.032c4.795,0,8.696,3.901,8.696,8.696 C232.98,493.071,229.079,496.973,224.284,496.973z M266.75,438.297c0,4.795-3.901,8.696-8.696,8.696 c-4.795,0-8.696-3.901-8.696-8.696v-31.068c0-4.795,3.901-8.696,8.696-8.696c4.795,0,8.696,3.901,8.696,8.696V438.297z"></path><path style="fill:#FE3934;" d="M142.773,107.196h-15.028V89.205c0-19.482,9.678-37.564,25.887-48.371 c12.02-8.014,19.195-21.421,19.195-35.867V0h15.027v4.967c0,19.482-9.678,37.564-25.887,48.371 c-12.02,8.014-19.195,21.421-19.195,35.867V107.196z"></path><polygon points="466.866,398.354 420.782,398.354 420.782,392.719 405.754,392.719 405.754,398.354 390.727,398.354 390.727,392.719 375.699,392.719 375.699,398.354 360.672,398.354 360.672,392.719 345.644,392.719 345.644,398.354 330.617,398.354 330.617,392.719 315.589,392.719 315.589,398.354 296.805,398.354 296.805,413.382 315.589,413.382 315.589,422.774 330.617,422.774 330.617,413.382 345.644,413.382 345.644,422.774 360.672,422.774 360.672,413.382 375.699,413.382 375.699,422.774 390.727,422.774 390.727,413.382 405.754,413.382 405.754,422.774 420.782,422.774 420.782,413.382 466.866,413.382 "></polygon><path style="fill:#EB4F27;" d="M197.254,268.742c-0.22,0-0.439-0.001-0.66-0.002c-47.285-0.351-85.754-39.556-85.754-87.396v-45.031 c0-7.768-6.321-14.089-14.089-14.089s-14.089,6.321-14.089,14.089v23.48H67.635v-23.481c0-16.054,13.062-29.116,29.116-29.116 s29.116,13.062,29.116,29.116v45.031c0,39.615,31.778,72.08,70.838,72.368c19.175,0.156,37.226-7.215,50.827-20.717 c13.604-13.504,21.097-31.496,21.097-50.662v-59.171c0-11.912-9.691-21.603-21.603-21.603c-20.198,0-36.63-16.432-36.63-36.63 v-23.42c0-17.64,14.351-31.992,31.992-31.992h15.704c15.132,0,27.443,12.311,27.443,27.443V54.6 c0,12.43-10.113,22.541-22.541,22.541c-12.429,0-22.541-10.112-22.541-22.541v-7.514h15.027V54.6c0,4.144,3.37,7.514,7.514,7.514 c4.144,0,7.514-3.37,7.514-7.514V36.961c0-6.846-5.57-12.416-12.416-12.416h-15.704c-9.354,0-16.964,7.61-16.964,16.964v23.422 c0,11.912,9.691,21.603,21.603,21.603c20.198,0,36.63,16.432,36.63,36.63v59.17c0,23.201-9.07,44.981-25.537,61.327 C241.809,259.85,220.217,268.741,197.254,268.742z"></path></svg>