<!-- icon666.com - MILLIONS vector ICONS FREE --><svg clip-rule="evenodd" fill-rule="evenodd" image-rendering="optimizeQuality" shape-rendering="geometricPrecision" text-rendering="geometricPrecision" viewBox="0 0 43.3492 43.3492" xmlns="http://www.w3.org/2000/svg"><g id="Layer_x0020_1"><g fill="#4b4439" fill-rule="nonzero"><path d="m38.9422 15.0448h-6.0658v13.2596h6.0658c.847 0 1.6175-.347 2.1765-.906s.906-1.3295.906-2.1766v-7.0944c0-.847-.347-1.6176-.906-2.1766s-1.3295-.906-2.1765-.906zm-6.7281-1.3245h6.7281c1.2126 0 2.3146.4956 3.113 1.294.7985.7985 1.294 1.9004 1.294 3.1131v7.0944c0 1.2127-.4955 2.3146-1.294 3.1131s-1.9004 1.294-3.113 1.294h-6.7281c-.3657 0-.6622-.2965-.6622-.6622v-14.5842c0-.3657.2965-.6622.6622-.6622z"></path><path d="m20.8324 7.4536c-.078 0-.1495.0324-.2016.0846-.0522.0521-.0846.1236-.0846.2016v27.8696c0 .078.0324.1494.0845.2016.0522.0521.1237.0846.2017.0846 2.9472 0 5.6269-1.2062 7.5701-3.1494s3.1494-4.6229 3.1494-7.5701v-7.003c0-2.9472-1.2062-5.6269-3.1494-7.5701s-4.623-3.1494-7.5701-3.1494zm-1.1381-.8519c.2916-.2916.6944-.4726 1.1381-.4726 3.3128 0 6.324 1.3547 8.5066 3.5374 2.1826 2.1826 3.5374 5.1938 3.5374 8.5066v7.003c0 3.3128-1.3548 6.3239-3.5374 8.5066-2.1826 2.1826-5.1938 3.5374-8.5066 3.5374-.4437 0-.8465-.1811-1.1381-.4726-.2916-.2916-.4726-.6945-.4726-1.1381v-27.8696c0-.4436.181-.8465.4726-1.1381z"></path><path d="m14.6038 16.4608c.3015-.2057.3791-.6169.1733-.9184-.2057-.3014-.6169-.379-.9183-.1733-.0226.0154-7.9586 5.3069-.0673 12.3819.2715.2429.6884.2197.9313-.0517.2429-.2715.2197-.6885-.0517-.9313-6.6229-5.9378-.0859-10.2945-.0673-10.3072z"></path><path d="m10.5362 14.709c.3014-.2057.379-.6169.1733-.9183s-.6169-.379-.9183-.1733c-.0289.0197-10.1999 6.801-.0673 15.8853.2715.2429.6884.2197.9313-.0517.2429-.2715.2197-.6884-.0517-.9313-8.8642-7.9471-.0922-13.7936-.0673-13.8107z"></path><path d="m6.6346 12.3734c.3014-.2057.379-.6169.1733-.9184-.2057-.3014-.6169-.379-.9183-.1733-.0374.0256-13.1881 8.7933-.0673 20.5567.2715.2428.6884.2197.9313-.0517.2429-.2715.2197-.6885-.0517-.9313-11.8524-10.6263-.1007-18.4592-.0673-18.482z"></path></g><path d="m20.5462 7.7398v27.8696c0 .078.0324.1494.0845.2016.0522.0521.1237.0846.2017.0846 2.9472 0 5.6269-1.2062 7.5701-3.1494s3.1494-4.6229 3.1494-7.5701v-7.003c0-2.9472-1.2062-5.6269-3.1494-7.5701s-4.623-3.1494-7.5701-3.1494c-.078 0-.1495.0324-.2016.0846-.0522.0521-.0846.1236-.0846.2016z" fill="#c5e1a5"></path><path d="m32.8764 18.1731v7.003 3.1283h6.0658c.847 0 1.6175-.347 2.1765-.906s.906-1.3295.906-2.1766v-7.0944c0-.847-.347-1.6176-.906-2.1766s-1.3295-.906-2.1765-.906h-6.0658z" fill="#bbdefb"></path><path d="m19.3251 25.1976c-1.4984-.5598-2.5567-1.9261-2.5567-3.523s1.0583-2.9632 2.5567-3.523z" fill="#4b4439"></path><path d="m42.0247 25.2218v-7.0944c0-.847-.347-1.6176-.906-2.1766s-1.3295-.906-2.1765-.906h-.0181c.7808.7959 1.2639 1.8853 1.2639 3.0826v7.0944c0 1.1973-.4831 2.2867-1.2639 3.0826h.0181c.847 0 1.6175-.347 2.1765-.906s.906-1.3295.906-2.1766z" fill="#93a6b8"></path><path d="m31.5519 18.1731c0-2.9471-1.2062-5.6269-3.1494-7.5701-1.2193-1.2194-2.7287-2.1485-4.4122-2.6715.7949.4933 1.5289 1.0765 2.1874 1.735 2.1826 2.1826 3.5374 5.1938 3.5374 8.5066v7.003c0 3.3128-1.3547 6.3239-3.5374 8.5066-.6585.6585-1.3925 1.2417-2.1874 1.735 1.6835-.523 3.1929-1.4521 4.4122-2.6715 1.9432-1.9432 3.1494-4.623 3.1494-7.5701z" fill="#95aa7e"></path></g></svg>