<!-- icon666.com - MILLIONS vector ICONS FREE --><svg id="Capa_1" enable-background="new 0 0 512 512" viewBox="0 0 512 512" xmlns="http://www.w3.org/2000/svg"><g><g><g fill="#cef"><path d="m421.491 100.51c39.836 39.836 64.509 94.836 64.509 155.49s-24.673 115.654-64.509 155.491l-28.273-28.273c32.594-32.594 52.782-77.594 52.782-127.218s-20.188-94.624-52.782-127.218z"></path><path d="m364.949 157.051c25.35 25.351 41.051 60.351 41.051 98.949s-15.701 73.599-41.051 98.949l-28.273-28.273c18.108-18.107 29.324-43.107 29.324-70.676s-11.216-52.568-29.324-70.676z"></path><path d="m46 156c-11.046 0-20 8.954-20 20v160c0 11.046 8.954 20 20 20h40v-200z"></path></g><path d="m86 156v200l160 146v-492z" fill="#fff"></path><path d="m266 296h-20v-80h20c22.091 0 40 17.909 40 40s-17.908 40-40 40z" fill="#9df"></path></g><g><g fill="#80aaff"><path d="m386.147 376.147c-3.903 3.903-3.904 10.236 0 14.143l28.273 28.273c3.905 3.903 10.237 3.904 14.143 0 43.487-43.489 67.437-101.222 67.437-162.563 0-61.342-23.95-119.073-67.438-162.562-3.904-3.903-10.234-3.904-14.143 0l-28.273 28.272c-1.875 1.876-2.929 4.419-2.929 7.071s1.054 5.195 2.929 7.071c32.149 32.149 49.854 74.818 49.854 120.148s-17.705 87.999-49.853 120.147zm21.032-247.184 14.148-14.147c35.333 38.768 54.673 88.521 54.673 141.184s-19.34 102.416-54.673 141.186l-14.148-14.148c31.556-34.971 48.821-79.706 48.821-127.038s-17.265-92.066-48.821-127.037z"></path><path d="m329.606 333.748 28.272 28.272c3.907 3.905 10.236 3.904 14.143 0 28.36-28.361 43.979-66.012 43.979-106.02s-15.619-77.659-43.979-106.021c-1.876-1.875-4.419-2.929-7.071-2.929s-5.196 1.054-7.071 2.929l-28.272 28.273c-3.905 3.905-3.905 10.237 0 14.143 17.019 17.021 26.393 39.61 26.393 63.605s-9.374 46.584-26.395 63.605c-3.905 3.906-3.905 10.238.001 14.143zm46.394-77.748c0-25.987-8.987-50.619-25.495-70.362l14.18-14.18c20.263 23.564 31.315 53.222 31.315 84.542s-11.052 60.979-31.315 84.542l-14.18-14.18c16.508-19.743 25.495-44.374 25.495-70.362z"></path><path d="m250.037.852c-3.624-1.601-7.851-.908-10.777 1.762l-157.136 143.386h-36.124c-16.542 0-30 13.458-30 30v160c0 16.542 13.458 30 30 30h36.124l157.136 143.387c2.915 2.661 7.14 3.367 10.777 1.762 3.624-1.599 5.963-5.187 5.963-9.149v-196h10c27.57 0 50-22.43 50-50s-22.43-50-50-50h-10v-196c0-3.962-2.339-7.549-5.963-9.148zm-174.037 345.148h-30c-5.514 0-10-4.486-10-10v-160c0-5.514 4.486-10 10-10h30zm160 133.338-140-127.75v-191.176l140-127.75zm30-253.338c16.542 0 30 13.458 30 30s-13.458 30-30 30h-10v-60z"></path></g></g></g></svg>