<!-- icon666.com - MILLIONS vector ICONS FREE --><svg id="Capa_1" enable-background="new 0 0 512 512" viewBox="0 0 512 512" xmlns="http://www.w3.org/2000/svg"><g><g><path d="m192.381 265.542 27.039 27.038 139.58-119.58 153-173h-54.076z" fill="#ebebf0"></path><path d="m246.458 319.619 265.542-265.543v-54.076l-292.58 292.58z" fill="#d2d2d7"></path><path d="m66.639 395.907 24.727 24.727 61.884-31.884 26.951-56.951-24.727-24.726z" fill="#ff9963"></path><path d="m85.331 371.095h125.631v34.969h-125.631z" fill="#ff6a4a" transform="matrix(.707 -.707 .707 .707 -231.376 218.568)"></path></g><g><path d="m61.029 404.941c-25.421 0-46.029 20.608-46.029 46.03 0 12.711 5.152 24.218 13.482 32.548l51.385-21.386 13.71-43.71c-8.33-8.33-19.837-13.482-32.548-13.482z" fill="#ff9963"></path><path d="m28.482 483.518c8.329 8.33 19.837 13.482 32.547 13.482 25.421 0 46.029-20.608 46.029-46.029 0-12.711-5.152-24.218-13.482-32.548z" fill="#ff6a4a"></path></g><g><path d="m155.727 240.722-39.552 39.552 57.776 57.775 44.049-4.049 6.833-46.833z" fill="#ffbf7d"></path><path d="m173.951 338.049 57.775 57.776 39.552-39.552-46.445-69.106z" fill="#ff9963"></path><path d="m0 450.971c0 16.826 6.844 32.083 17.895 43.134l20.586-.586.617-20.617c-5.618-5.619-9.098-13.377-9.098-21.931 0-17.109 13.92-31.029 31.029-31.029 8.555 0 16.312 3.48 21.931 9.099l20.617-.617.586-20.586c-11.051-11.051-26.308-17.895-43.134-17.895-33.652-.002-61.029 27.376-61.029 61.028z" fill="#ffbf7d"></path><path d="m92.059 450.971c0 17.109-13.92 31.029-31.029 31.029-8.555 0-16.312-3.48-21.931-9.099l-21.203 21.203c11.05 11.052 26.307 17.896 43.133 17.896 33.652 0 61.029-27.377 61.029-61.029 0-16.826-6.844-32.083-17.895-43.134l-21.203 21.203c5.619 5.619 9.099 13.376 9.099 21.931z" fill="#ff9963"></path></g></g></svg>